<?xml version="1.0" encoding="utf-8" ?>
<svg xmlns="http://www.w3.org/2000/svg" width="512" height="512" viewBox="0 0 283 283">
  <circle cx="141.5" cy="141.5" r="141.5" fill="black"/>
  <g transform="translate(45.5, 0)">
    <path transform="scale(1.90099 1.89933)" fill="white" d="M54.8326 29.5452C55.1653 29.5015 55.4992 29.467 55.8338 29.442C60.3666 29.1081 64.2819 31.7378 64.6082 36.5373C64.7637 38.7478 64.0218 40.9276 62.5503 42.5843C58.7864 46.8612 54.2567 45.7365 50.5247 42.3747L28.058 55.4586C24.6753 57.4138 20.3149 60.1346 16.8933 61.8161C17.1295 66.7924 16.9142 72.736 16.9729 77.7806C17.0105 81.0044 17.1124 87.691 16.7036 90.5943C27.8577 85.1528 40.4895 75.9478 51.7539 70.5879C47.7824 68.1466 43.3983 66.0404 39.6014 63.3631C38.8824 62.8561 38.1619 62.3713 38.0117 61.445C37.8803 60.6343 38.1974 59.7419 38.6681 59.0888C39.0467 58.5637 39.5571 58.1916 40.2075 58.0955C42.2116 57.7991 55.0662 65.797 57.3086 67.417C62.1819 63.9034 71.1951 59.7024 76.2863 55.9713C76.9841 53.7215 76.5585 51.4449 78.3677 49.5624C81.9925 45.7907 86.3145 46.1391 90.1603 49.2938C93.5938 53.7427 92.2398 58.7778 87.4834 61.4687C86.6916 70.1602 87.6299 79.6732 87.271 88.4271C87.1431 91.5467 88.1738 99.1446 85.46 100.777C81.8437 103.014 50.0023 122.45 48.5201 121.609C42.6429 118.275 14.5687 103.621 11.7754 99.9028C11.4839 98.9841 11.3172 97.8375 11.3154 96.8694C11.3064 86.4165 11.5217 75.8406 11.3505 65.3978C11.3032 60.3216 11.0921 58.5783 15.7902 55.9897C26.9105 49.8627 37.7182 43.0738 48.815 36.9344C49.7873 32.8708 50.7274 31.0504 54.8326 29.5452Z"/>
    <path fill="white" transform="scale(1.90099 1.89933)" d="M79.5255 60.7235C79.7446 60.8001 81.3628 61.9022 81.6684 62.1055C82.0942 72.7364 81.7396 85.8509 81.7414 96.6325C78.8001 98.0343 72.5921 101.933 69.6082 103.697L48.7546 115.852C47.2982 114.856 45.1412 113.658 43.5847 112.731C43.4938 111.201 43.5608 108.959 43.5579 107.375L43.558 98.7738C53.1093 93.6216 62.792 87.5599 72.1551 82.004C73.2323 81.3649 74.508 78.9981 73.7936 77.9427C71.9151 75.1674 65.7045 71.9236 62.6149 70.6088C67.3276 67.9065 75.3161 63.5791 79.5255 60.7235Z"/>
    <path fill="white" transform="scale(1.90099 1.89933)" d="M57.3178 73.5297C59.29 74.2894 64.2551 77.7865 66.5428 79.0159C63.32 80.6286 40.041 94.1328 38.7322 95.5839C37.3759 97.0875 37.995 107.377 38.1753 109.714C35.8959 108.204 33.3746 106.805 30.9933 105.433C28.708 103.91 19.0568 98.1122 16.9049 97.2434C30.0745 89.3807 44.5203 81.5545 57.3178 73.5297Z"/>
    <path fill="white" transform="scale(1.90099 1.89933)" d="M56.3551 34.7266C58.0786 34.7569 59.688 36.1605 59.0787 37.9686C58.6211 39.3264 57.9063 39.5953 56.7419 40.2474C53.2641 39.3211 53.5019 36.5133 56.3551 34.7266Z"/>
    <path fill="white" transform="scale(1.90099 1.89933)" d="M84.1217 52.2058C85.4493 52.1322 86.5994 53.117 86.7311 54.44C86.8628 55.7631 85.9293 56.9552 84.6133 57.1447C83.7092 57.2748 82.8066 56.8983 82.263 56.1642C81.7195 55.4302 81.6226 54.457 82.0109 53.6302C82.3991 52.8035 83.2097 52.2564 84.1217 52.2058Z"/>
  </g>
</svg>