<?xml version="1.0" encoding="utf-8" ?><svg xmlns="http://www.w3.org/2000/svg" xmlns:xlink="http://www.w3.org/1999/xlink" width="1082" height="1595" viewBox="0 0 1082 1595"><clipPath id="cl_3"><rect x="-6.1035156e-05" y="-7.6293945e-06" width="1082" height="1595.0001"/></clipPath><g clip-path="url(#cl_3)"><path transform="matrix(1.05664 0 0 1.05629 -6.10352e-05 -7.62939e-06)" d="M573.202 298.399C615.908 298.646 649.744 324.008 654.558 367.685C659.018 408.152 627.491 455.547 585.531 459.722C557.872 462.474 532.45 446.296 512.098 429.483L307.191 548.829C261.043 575.697 218.522 601.764 171.25 626.671C170.64 643.381 171.853 666.039 171.868 683.578L171.736 785.471C171.891 833.167 172.467 871.202 169.093 918.963C199.012 903.33 228.592 887.057 257.813 870.156C329.944 827.919 400.183 782.184 473.593 742.115C490.333 732.978 507.602 724.546 524.533 715.71C498.426 699.296 471.077 684.934 444.367 669.547C429.494 660.98 390.179 640.654 385.93 624.035C383.972 616.381 386.49 608.278 390.534 601.74C393.88 596.331 398.272 591.498 404.714 590.099C431.259 584.333 554.631 666.476 581.013 683.504C639.426 641.532 716.675 609.985 773.414 567.391C776.675 556.931 777.955 542.82 780.235 531.621C783.844 511.729 796.322 498.066 812.739 487.141C848.528 463.325 899.656 476.701 922.212 512.287C946.988 559.248 928.229 596.374 887.213 622.987C880.796 672.283 883.277 731.159 884.366 781.268C885.165 823.384 885.414 865.509 885.112 907.633C885.124 936.852 889.865 991.245 872.682 1015.65C868.09 1022.18 831.717 1043.28 822.398 1048.92L745.524 1094.96C673.05 1138.1 600.228 1181.53 525.36 1220.49C514.803 1225.99 504.593 1230.18 493.252 1233.72C486.688 1230.89 474.07 1223.56 467.377 1219.9L417.149 1192.37C371.853 1167.65 137.88 1043.81 119.393 1012.64C115.76 1006.51 115.568 995.19 115.257 987.995C114.202 963.589 114.922 939.134 115.005 914.715C115.099 865.088 115.444 815.461 116.04 765.838C116.146 746.709 116.04 727.58 115.722 708.454C115.019 677.296 112.589 639.306 118.701 609.212C124.029 582.978 169.205 562.303 190.744 550.33C212.098 538.561 233.287 526.494 254.305 514.133C334.724 467.505 414.003 420.09 495.046 374.495C505.314 329.745 523.059 301.266 573.202 298.399ZM635.039 716.078C669.014 731.167 703.198 749.056 731.69 773.107C737.279 778.002 745.952 785.291 748.501 792.312C753.126 805.053 742.869 822.608 732.911 830.11C723.543 837.167 712.41 843.19 702.213 849.171C687.602 857.74 673.049 866.409 658.556 875.178C611.465 903.831 564.102 932.033 516.473 959.783C491.851 973.95 465.286 987.462 441.329 1001.66L441.194 1086.13C441.123 1101.29 440.265 1128.87 441.778 1143.07C456.255 1151.46 480.837 1165.01 493.853 1174.8C568.299 1133.2 642.035 1087.93 715.903 1045.23C752.261 1024.21 791.78 998.342 828.788 979.806C829.967 957.63 829.193 928.391 829.272 905.715L830.028 783.541C830.203 753.989 830.188 724.436 829.983 694.884C829.944 678.627 829.917 645.103 827.689 629.533C823.322 626.48 809.965 616.499 805.458 615.929C767.967 640.721 731.61 661.04 692.427 683.014C675.336 692.599 650.714 705.355 635.039 716.078ZM848.414 530.004C835.005 533.146 826.595 546.463 829.52 559.922C832.445 573.381 845.624 582.006 859.127 579.298C868.059 577.508 875.331 571.041 878.153 562.379C880.975 553.718 878.908 544.208 872.746 537.499C866.583 530.79 857.283 527.925 848.414 530.004ZM570.594 352.537C561.088 359.02 551.714 367.181 549.563 378.889C546.857 393.616 560.425 405.725 574.016 407.487C575.42 407.669 575.898 407.545 577.196 407.007C592.562 397.92 606.904 385.02 596.935 364.895C592.996 356.943 579.037 352.197 570.594 352.537ZM580.562 745.776C487.674 802.41 393.909 857.593 299.303 911.306L218.791 958.002C203.692 966.777 185.647 976.676 171.294 986.214C190.195 994.505 210.187 1006.54 228.182 1017C256.692 1033.34 284.798 1050.36 312.476 1068.07C336.325 1082.54 363.845 1097.42 386.672 1112.58C385.792 1086.46 378.075 985.258 393.259 969.268C400.848 961.277 411.938 955.229 421.217 949.339C438.386 938.509 455.713 927.93 473.191 917.606C539.385 877.674 606.27 838.902 673.819 801.308C661.045 793.001 590.131 747.269 580.562 745.776Z"/></g></svg>